# xmcd CD database file
#
# Track frame offsets:
#	150
#	11852
#	26260
#	33501
#	64119
#	77059
#	89294
#	109025
#	124979
#	150509
#	187702
#	220105
#
# Disc length: 3405 seconds
#
# Revision: 1
# Processed by: cddbd v1.5.2PL0 Copyright (c) Steve Scherf et al.
# Submitted via: CDex 1.51
#
DISCID=8f0d4b0c
DTITLE=Barry Brown - First Time Out
DYEAR=2007
DGENRE=New Age
TTITLE0=The Surprise
TTITLE1=Guitar Float
TTITLE2=Dream Edge
TTITLE3=Quiet Memories
TTITLE4=Sunday Morning
TTITLE5=East Bounce
TTITLE6=Happy Groove
TTITLE7=Dusk On Loon Lake
TTITLE8=Eastern garden
TTITLE9=Sandy's Secret garden
TTITLE10=Sea Of Mystery
TTITLE11=The Surprise Remix
EXTD=YEAR: 2007
EXTT0=
EXTT1=
EXTT2=
EXTT3=
EXTT4=
EXTT5=
EXTT6=
EXTT7=
EXTT8=
EXTT9=
EXTT10=
EXTT11=
PLAYORDER=
